<?xml version="1.0" encoding="UTF-8"?>
<svg width="33px" height="34px" viewBox="0 0 33 34" version="1.1" xmlns="http://www.w3.org/2000/svg" xmlns:xlink="http://www.w3.org/1999/xlink">
    <!-- Generator: Sketch 50.2 (55047) - http://www.bohemiancoding.com/sketch -->
    <title>icon_sql</title>
    <desc>Created with Sketch.</desc>
    <defs></defs>
    <g id="Page-1" stroke="none" stroke-width="1" fill="none" fill-rule="evenodd">
        <g id="Folders" transform="translate(-435.000000, -763.000000)">
            <g id="1-copy-7" transform="translate(220.000000, 744.000000)">
                <g id="icon_sql" transform="translate(216.000000, 20.000000)">
                    <path d="M4.36363636,14.5454545 L4.36363636,1.45454545 C4.36363636,0.651222255 5.01485862,0 5.81818182,0 L21.8181916,0 L30.5454545,8.72727273 L30.5454545,30.5454545 C30.5454545,31.3487771 29.8942316,32 29.0909091,32 L5.81818182,32 C5.01485862,32 4.36363636,31.3487771 4.36363636,30.5454545 L4.36363636,23.2727273" id="Shape" stroke="#E5E8F4" stroke-linejoin="round"></path>
                    <polyline id="Shape" stroke="#E5E8F4" stroke-linejoin="round" points="21.8181818 0.727272727 21.8181818 8.72727273 30.5454545 8.72727273"></polyline>
                    <rect id="Rectangle-path" stroke="#E5E8F4" stroke-linejoin="round" x="0" y="14.5454545" width="19.6363636" height="9.45454545"></rect>
                    <path d="M4.59938745,20.5660373 C4.61430229,20.8323739 4.67715678,21.0486359 4.78795279,21.2148299 C4.99889134,21.525911 5.3706916,21.6814492 5.90336472,21.6814492 C6.14200227,21.6814492 6.35932965,21.6473587 6.55535335,21.5791765 C6.93461661,21.4470736 7.1242454,21.2105703 7.1242454,20.8696595 C7.1242454,20.6139764 7.04434563,20.4318049 6.8845437,20.3231396 C6.72261107,20.2166049 6.46906247,20.1239212 6.12389029,20.0450856 L5.48788176,19.9012646 C5.07239673,19.8075141 4.77836558,19.7041771 4.60577949,19.5912504 C4.30748254,19.3952267 4.15833631,19.1022608 4.15833631,18.7123441 C4.15833631,18.290467 4.30428655,17.9442347 4.59619142,17.6736367 C4.88809629,17.4030388 5.30144443,17.2677418 5.83624824,17.2677418 C6.3284382,17.2677418 6.74658033,17.3865262 7.09068716,17.6240984 C7.434794,17.8616706 7.60684483,18.2414608 7.60684483,18.7634805 L7.00918858,18.7634805 C6.97722819,18.5120588 6.90904706,18.319234 6.80464313,18.1850004 C6.61075011,17.9399707 6.28156306,17.8174578 5.8170721,17.8174578 C5.44207023,17.8174578 5.17254167,17.8962922 5.00847835,18.0539634 C4.84441503,18.2116347 4.7623846,18.3948715 4.7623846,18.6036793 C4.7623846,18.8337941 4.85826433,19.0021163 5.05002665,19.1086509 C5.17573751,19.1768331 5.46018068,19.2620595 5.90336472,19.3643328 L6.5617454,19.5145458 C6.87921858,19.5869894 7.12424454,19.6860651 7.29683063,19.8117759 C7.59512757,20.0312373 7.74427381,20.349771 7.74427381,20.7673867 C7.74427381,21.2872757 7.55517769,21.659076 7.17697978,21.8827987 C6.79878186,22.1065214 6.35933313,22.2183811 5.8586204,22.2183811 C5.27481066,22.2183811 4.81778398,22.0692348 4.48752665,21.7709379 C4.15726932,21.4747716 3.99533912,21.0731421 4.0017312,20.5660373 L4.59938745,20.5660373 Z M12.8451261,22.068168 L12.5255238,22.4548867 L11.8000266,21.9019748 C11.6253099,21.997856 11.4362137,22.0745597 11.2327326,22.1320884 C11.0292515,22.1896171 10.8071301,22.2183811 10.5663619,22.2183811 C9.83766505,22.2183811 9.26664803,21.9797471 8.8532937,21.502472 C8.48894528,21.037981 8.30677381,20.4563107 8.30677381,19.7574436 C8.30677381,19.1224972 8.46444269,18.5791788 8.77978517,18.127472 C9.18461674,17.5479236 9.78333235,17.2581538 10.5759499,17.2581538 C11.4047893,17.2581538 12.0184195,17.5244863 12.416859,18.0571595 C12.7279401,18.4726445 12.8834784,19.0042443 12.8834784,19.6519748 C12.8834784,19.9545331 12.8461918,20.2453683 12.7716176,20.524489 C12.6586909,20.9506275 12.4679967,21.2979252 12.1995295,21.5663924 L12.8451261,22.068168 Z M10.6430664,21.649489 C10.7751694,21.649489 10.8987477,21.6404337 11.0138051,21.6223228 C11.1288625,21.6042119 11.2290035,21.5685234 11.3142312,21.5152561 L10.7996715,21.1125572 L11.1192738,20.7194464 L11.7329102,21.1956538 C11.9268032,20.9740618 12.0583715,20.7258398 12.127619,20.4509805 C12.1968665,20.1761212 12.2314897,19.9129846 12.2314897,19.6615629 C12.2314897,19.1097135 12.0871375,18.6654708 11.7984286,18.3288214 C11.5097198,17.992172 11.1150149,17.8238498 10.6143022,17.8238498 C10.1071974,17.8238498 9.7055679,17.9852473 9.40940165,18.3080472 C9.1132354,18.6308472 8.96515449,19.1278237 8.96515449,19.7989918 C8.96515449,20.3636254 9.10737608,20.8131947 9.39182352,21.1477134 C9.67627097,21.4822322 10.0933478,21.649489 10.6430664,21.649489 Z M13.6409357,17.3859947 L14.2769443,17.3859947 L14.2769443,21.5216481 L16.6547852,21.5216481 L16.6547852,22.0809521 L13.6409357,22.0809521 L13.6409357,17.3859947 Z" id="SQL" fill="#909DAA"></path>
                </g>
            </g>
        </g>
    </g>
</svg>