<?xml version="1.0" encoding="UTF-8"?>
<svg width="14px" height="16px" viewBox="0 0 14 16" version="1.1" xmlns="http://www.w3.org/2000/svg" xmlns:xlink="http://www.w3.org/1999/xlink">
    <!-- Generator: Sketch 50.2 (55047) - http://www.bohemiancoding.com/sketch -->
    <title>icon_files</title>
    <desc>Created with Sketch.</desc>
    <defs></defs>
    <g id="Page-1" stroke="none" stroke-width="1" fill="none" fill-rule="evenodd">
        <g id="Requests-1/2" transform="translate(-40.000000, -226.000000)" fill="#776CBA">
            <g id="Sidebar">
                <g id="Group" transform="translate(40.000000, 226.000000)">
                    <g id="Group-11">
                        <g id="icon_files">
                            <path d="M9,4 L1,4 C0.4,4 0,4.4 0,5 L0,15 C0,15.6 0.4,16 1,16 L9,16 C9.6,16 10,15.6 10,15 L10,5 C10,4.4 9.6,4 9,4" id="Fill-26"></path>
                            <path d="M13,0 L3,0 L3,2 L12,2 L12,13 L14,13 L14,1 C14,0.4 13.6,0 13,0" id="Fill-27"></path>
                        </g>
                    </g>
                </g>
            </g>
        </g>
    </g>
</svg>