<?xml version="1.0" encoding="UTF-8"?>
<svg width="15px" height="16px" viewBox="0 0 15 16" version="1.1" xmlns="http://www.w3.org/2000/svg" xmlns:xlink="http://www.w3.org/1999/xlink">
    <!-- Generator: Sketch 50.2 (55047) - http://www.bohemiancoding.com/sketch -->
    <title>icon_add_user</title>
    <desc>Created with Sketch.</desc>
    <defs></defs>
    <g id="Page-1" stroke="none" stroke-width="1" fill="none" fill-rule="evenodd" stroke-linecap="round" stroke-linejoin="round">
        <g id="Files" transform="translate(-945.000000, -151.000000)" stroke="#909DAA" stroke-width="2">
            <g id="Group-18" transform="translate(820.000000, 140.000000)">
                <g id="Group-2-Copy-2" transform="translate(114.000000, 0.000000)">
                    <g id="icon_add_user" transform="translate(12.000000, 12.000000)">
                        <path d="M5.72727273,7.63636364 C3.93018182,7.63636364 2.33609091,8.04236364 1.28863636,8.39554545 C0.515454545,8.65709091 0,9.38572727 0,10.2021818 L0,12.7272727 L5.09090909,12.7272727" id="Stroke-9"></path>
                        <path d="M5.72727273,7.63636364 L5.72727273,7.63636364 C3.97027273,7.63636364 2.54545455,5.57518182 2.54545455,3.81818182 L2.54545455,3.18181818 C2.54545455,1.42481818 3.97027273,0 5.72727273,0 C7.48427273,0 8.90909091,1.42481818 8.90909091,3.18181818 L8.90909091,3.81818182 C8.90909091,5.57518182 7.48427273,7.63636364 5.72727273,7.63636364 L5.72727273,7.63636364 Z" id="Stroke-11"></path>
                        <g id="Group-10" transform="translate(8.272727, 10.181818)">
                            <path d="M1.90909091,0 L1.90909091,3.81818182" id="Stroke-5"></path>
                            <path d="M0,1.90909091 L3.81818182,1.90909091" id="Stroke-7"></path>
                        </g>
                    </g>
                </g>
            </g>
        </g>
    </g>
</svg>