<?xml version="1.0" encoding="UTF-8"?>
<svg width="16px" height="16px" viewBox="0 0 16 16" version="1.1" xmlns="http://www.w3.org/2000/svg" xmlns:xlink="http://www.w3.org/1999/xlink">
    <!-- Generator: Sketch 50.2 (55047) - http://www.bohemiancoding.com/sketch -->
    <title>icon_requests</title>
    <desc>Created with Sketch.</desc>
    <defs></defs>
    <g id="Page-1" stroke="none" stroke-width="1" fill="none" fill-rule="evenodd">
        <g id="Requests-1/2" transform="translate(-40.000000, -282.000000)" fill="#776CBA">
            <g id="Sidebar">
                <g id="Group-10" transform="translate(40.000000, 281.000000)">
                    <g id="icon_requests" transform="translate(0.000000, 1.000000)">
                        <path d="M15,0 L1,0 C0.4,0 0,0.4 0,1 L0,15 C0,15.6 0.4,16 1,16 L15,16 C15.6,16 16,15.6 16,15 L16,1 C16,0.4 15.6,0 15,0 L15,0 Z M14,2 L14,11 L11,11 C10.4,11 10,11.4 10,12 L10,13 L6,13 L6,12 C6,11.4 5.6,11 5,11 L2,11 L2,2 L14,2 L14,2 Z" id="Fill-63"></path>
                        <path d="M6.3,9.7 C6.8,10.2 7.3,10.1 7.7,9.7 L11.7,5.7 C12.1,5.3 12.1,4.7 11.7,4.3 C11.3,3.9 10.7,3.9 10.3,4.3 L7,7.6 L5.7,6.3 C5.3,5.9 4.7,5.9 4.3,6.3 C3.9,6.7 3.9,7.3 4.3,7.7 L6.3,9.7" id="Fill-64"></path>
                    </g>
                </g>
            </g>
        </g>
    </g>
</svg>