<?xml version="1.0" encoding="UTF-8"?>
<svg width="16px" height="12px" viewBox="0 0 16 12" version="1.1" xmlns="http://www.w3.org/2000/svg" xmlns:xlink="http://www.w3.org/1999/xlink">
    <!-- Generator: Sketch 50.2 (55047) - http://www.bohemiancoding.com/sketch -->
    <title>icon_click</title>
    <desc>Created with Sketch.</desc>
    <defs></defs>
    <g id="Page-1" stroke="none" stroke-width="1" fill="none" fill-rule="evenodd">
        <g id="Files" transform="translate(-782.000000, -339.000000)" fill="#909DAA">
            <g id="1-copy" transform="translate(220.000000, 310.000000)">
                <g id="Group-4" transform="translate(562.000000, 27.000000)">
                    <g id="Group-13" transform="translate(0.000000, 2.000000)">
                        <g id="icon_click">
                            <path d="M7.55548235,1.88235294 C10.2274824,1.88235294 12.2952471,4.55058824 13.0312471,5.64705882 C12.2933647,6.74447059 10.2256,9.41176471 7.55548235,9.41176471 C4.8816,9.41176471 2.81383529,6.74070588 2.07877647,5.64611765 C2.81007059,4.55058824 4.86936471,1.88235294 7.55548235,1.88235294 M7.55548235,11.2941176 C11.9856,11.2941176 14.8439529,6.32094118 14.9634824,6.11011765 C15.1244235,5.824 15.1253647,5.47388235 14.9644235,5.18776471 C14.8458353,4.976 12.0081882,0 7.55548235,0 C3.08018824,0 0.262305882,4.97788235 0.144658824,5.18964706 C-0.0144,5.47482353 -0.0134588235,5.82211765 0.146541176,6.10729412 C0.265129412,6.31811765 3.10277647,11.2941176 7.55548235,11.2941176" id="Fill-125"></path>
                            <path d="M7.55548235,3.76470588 C8.59548235,3.76470588 9.43783529,4.60705882 9.43783529,5.64705882 C9.43783529,6.68705882 8.59548235,7.52941176 7.55548235,7.52941176 C6.51548235,7.52941176 5.67312941,6.68705882 5.67312941,5.64705882 C5.67312941,4.60705882 6.51548235,3.76470588 7.55548235,3.76470588" id="Fill-126"></path>
                        </g>
                    </g>
                </g>
            </g>
        </g>
    </g>
</svg>