<?xml version="1.0" encoding="UTF-8"?>
<svg width="4px" height="16px" viewBox="0 0 4 16" version="1.1" xmlns="http://www.w3.org/2000/svg" xmlns:xlink="http://www.w3.org/1999/xlink">
    <!-- Generator: Sketch 50.2 (55047) - http://www.bohemiancoding.com/sketch -->
    <title>icon_dots_more</title>
    <desc>Created with Sketch.</desc>
    <defs></defs>
    <g id="Page-1" stroke="none" stroke-width="1" fill="none" fill-rule="evenodd">
        <g id="Requests-1/2" transform="translate(-696.000000, -274.000000)" fill="black">
            <g id="1" transform="translate(435.000000, 249.000000)">
                <g id="icon_dots_more" transform="translate(263.000000, 33.500000) rotate(90.000000) translate(-263.000000, -33.500000) translate(254.500000, 31.500000)">
                    <path d="M8.0277,0 C9.1327,0 10.0277,0.895 10.0277,2 C10.0277,3.105 9.1327,4 8.0277,4 C6.9227,4 6.0277,3.105 6.0277,2 C6.0277,0.895 6.9227,0 8.0277,0" id="Fill-316"></path>
                    <path d="M2.0277,0 C3.1327,0 4.0277,0.895 4.0277,2 C4.0277,3.105 3.1327,4 2.0277,4 C0.9227,4 0.0277,3.105 0.0277,2 C0.0277,0.895 0.9227,0 2.0277,0" id="Fill-317"></path>
                    <path d="M14.0277,0 C15.1327,0 16.0277,0.895 16.0277,2 C16.0277,3.105 15.1327,4 14.0277,4 C12.9227,4 12.0277,3.105 12.0277,2 C12.0277,0.895 12.9227,0 14.0277,0" id="Fill-318"></path>
                </g>
            </g>
        </g>
    </g>
</svg>
