<?xml version="1.0" encoding="UTF-8"?>
<svg width="14px" height="14px" viewBox="0 0 14 14" version="1.1" xmlns="http://www.w3.org/2000/svg" xmlns:xlink="http://www.w3.org/1999/xlink">
    <!-- Generator: Sketch 50.2 (55047) - http://www.bohemiancoding.com/sketch -->
    <title>icon_informations</title>
    <desc>Created with Sketch.</desc>
    <defs></defs>
    <g id="Page-1" stroke="none" stroke-width="1" fill="none" fill-rule="evenodd">
        <g id="Folders" transform="translate(-1289.000000, -426.000000)" fill="#181048">
            <g id="Group-5" transform="translate(1269.000000, 300.000000)">
                <g id="Group-17" transform="translate(20.000000, 125.000000)">
                    <path d="M7,6.25 C6.475,6.25 6.125,5.9 6.125,5.375 C6.125,4.85 6.475,4.5 7,4.5 C7.525,4.5 7.875,4.85 7.875,5.375 C7.875,5.9 7.525,6.25 7,6.25 L7,6.25 Z M7.875,11.5 L6.125,11.5 L6.125,7.125 L7.875,7.125 L7.875,11.5 Z M7,1 C3.15,1 0,4.15 0,8 C0,11.85 3.15,15 7,15 C10.85,15 14,11.85 14,8 C14,4.15 10.85,1 7,1 L7,1 Z" id="icon_informations"></path>
                </g>
            </g>
        </g>
    </g>
</svg>