<?xml version="1.0" encoding="UTF-8"?>
<svg width="14px" height="14px" viewBox="0 0 14 14" version="1.1" xmlns="http://www.w3.org/2000/svg" xmlns:xlink="http://www.w3.org/1999/xlink">
    <!-- Generator: Sketch 50.2 (55047) - http://www.bohemiancoding.com/sketch -->
    <title>icon_add_tag</title>
    <desc>Created with Sketch.</desc>
    <defs></defs>
    <g id="Page-1" stroke="none" stroke-width="1" fill="none" fill-rule="evenodd">
        <g id="Contacts" transform="translate(-1312.000000, -358.000000)" fill="#181048">
            <g id="Group-5" transform="translate(1290.000000, 297.000000)">
                <g id="Group-20" transform="translate(22.000000, 58.000000)">
                    <path d="M3.5,7.375 C2.975,7.375 2.625,7.025 2.625,6.5 C2.625,5.975 2.975,5.625 3.5,5.625 C4.025,5.625 4.375,5.975 4.375,6.5 C4.375,7.025 4.025,7.375 3.5,7.375 M13.7375,10.2625 L6.7375,3.2625 C6.5625,3.0875 6.3875,3 6.125,3 L0.875,3 C0.35,3 0,3.35 0,3.875 L0,9.125 C0,9.3875 0.0875,9.5625 0.2625,9.7375 L7.2625,16.7375 C7.4375,16.9125 7.6125,17 7.875,17 C8.1375,17 8.3125,16.9125 8.4875,16.7375 L13.7375,11.4875 C14.0875,11.1375 14.0875,10.6125 13.7375,10.2625" id="icon_add_tag"></path>
                </g>
            </g>
        </g>
    </g>
</svg>