<?xml version="1.0" encoding="UTF-8"?>
<svg width="16px" height="13px" viewBox="0 0 16 13" version="1.1" xmlns="http://www.w3.org/2000/svg" xmlns:xlink="http://www.w3.org/1999/xlink">
    <!-- Generator: Sketch 50.2 (55047) - http://www.bohemiancoding.com/sketch -->
    <title>icon_download</title>
    <desc>Created with Sketch.</desc>
    <defs></defs>
    <g id="Page-1" stroke="none" stroke-width="1" fill="none" fill-rule="evenodd" stroke-linecap="round" stroke-linejoin="round">
        <g id="Requests-1/2" transform="translate(-601.000000, -747.000000)" stroke="#725FE3" stroke-width="2">
            <g id="4" transform="translate(435.000000, 537.000000)">
                <g id="Group-2" transform="translate(155.000000, 197.000000)">
                    <g id="icon_download" transform="translate(12.000000, 14.000000)">
                        <path d="M7,4.45327273 L7,9.54418182" id="Stroke-59"></path>
                        <polyline id="Stroke-61" points="8.90909091 7.63509091 7 9.54418182 5.09090909 7.63509091"></polyline>
                        <path d="M10.1818182,10.1818182 L11.4545455,10.1818182 C12.8602727,10.1818182 14,9.04081818 14,7.63509091 C14,6.237 12.866,5.08136364 11.4386364,5.09154545 C11.2750909,2.604 9.21072727,0.635090909 6.68181818,0.635090909 C4.12427273,0.635090909 2.04272727,2.64854545 1.92054545,5.17618182 C0.819,5.45554545 0,6.44572727 0,7.63509091 C0,9.04081818 1.13972727,10.1818182 2.54545455,10.1818182 L3.81818182,10.1818182" id="Stroke-63"></path>
                    </g>
                </g>
            </g>
        </g>
    </g>
</svg>