<?xml version="1.0" encoding="UTF-8"?>
<svg width="16px" height="16px" viewBox="0 0 16 16" version="1.1" xmlns="http://www.w3.org/2000/svg" xmlns:xlink="http://www.w3.org/1999/xlink">
    <!-- Generator: Sketch 50.2 (55047) - http://www.bohemiancoding.com/sketch -->
    <title>icon_not_seen</title>
    <desc>Created with Sketch.</desc>
    <defs></defs>
    <g id="Page-1" stroke="none" stroke-width="1" fill="none" fill-rule="evenodd">
        <g id="Files" transform="translate(-782.000000, -267.000000)" fill="#909DAA">
            <g id="1" transform="translate(220.000000, 240.000000)">
                <g id="Group-4" transform="translate(562.000000, 27.000000)">
                    <g id="Group-13">
                        <g id="icon_not_seen">
                            <path d="M13.7427765,5.33552941 L12.4025412,6.67576471 C12.6641882,7.00235294 12.8787765,7.30070588 13.0321882,7.52941176 C12.3168941,8.59294118 10.3498353,11.1247059 7.79830588,11.28 L6.09007059,12.9882353 C6.55689412,13.1049412 7.04442353,13.1764706 7.55548235,13.1764706 C11.9856,13.1764706 14.8439529,8.20329412 14.9634824,7.99247059 C15.1244235,7.70635294 15.1253647,7.35623529 14.9644235,7.07011765 C14.9201882,6.99011765 14.4938353,6.24094118 13.7427765,5.33552941" id="Fill-129"></path>
                            <path d="M2.07877647,7.52847059 C2.81007059,6.43294118 4.86936471,3.76470588 7.55548235,3.76470588 C8.25383529,3.76470588 8.90795294,3.95388235 9.51124706,4.24282353 L8.03736471,5.71670588 C7.88301176,5.67435294 7.72301176,5.64705882 7.55548235,5.64705882 C6.51548235,5.64705882 5.67312941,6.48941176 5.67312941,7.52941176 C5.67312941,7.69694118 5.70042353,7.85694118 5.74277647,8.01129412 L4.01665882,9.73741176 C3.11783529,8.95058824 2.43454118,8.05835294 2.07877647,7.52847059 M0.301835294,14.7830588 C0.485364706,14.9665882 0.726305882,15.0588235 0.967247059,15.0588235 C1.20818824,15.0588235 1.44912941,14.9665882 1.63265882,14.7830588 L14.8091294,1.60658824 C15.1771294,1.23858824 15.1771294,0.643764706 14.8091294,0.275764706 C14.4411294,-0.0922352941 13.8463059,-0.0922352941 13.4783059,0.275764706 L10.8947765,2.85929412 C9.92254118,2.288 8.80818824,1.88235294 7.55548235,1.88235294 C3.08018824,1.88235294 0.262305882,6.86023529 0.144658824,7.072 C-0.0144,7.35717647 -0.0134588235,7.70447059 0.146541176,7.98964706 C0.212423529,8.10729412 1.12912941,9.68564706 2.68112941,11.0729412 L0.300894118,13.4531765 C-0.0661647059,13.8202353 -0.0661647059,14.4150588 0.301835294,14.7830588" id="Fill-130"></path>
                        </g>
                    </g>
                </g>
            </g>
        </g>
    </g>
</svg>