<?xml version="1.0" encoding="UTF-8"?>
<svg width="16px" height="16px" viewBox="0 0 16 16" version="1.1" xmlns="http://www.w3.org/2000/svg" xmlns:xlink="http://www.w3.org/1999/xlink">
    <!-- Generator: Sketch 50.2 (55047) - http://www.bohemiancoding.com/sketch -->
    <title>icon_home</title>
    <desc>Created with Sketch.</desc>
    <defs></defs>
    <g id="Page-1" stroke="none" stroke-width="1" fill="none" fill-rule="evenodd">
        <g id="Requests-1/2" transform="translate(-40.000000, -170.000000)" fill="#776CBA">
            <g id="Sidebar">
                <g id="Group-12" transform="translate(40.000000, 170.000000)">
                    <path d="M10.9482901,16 L12.9471308,16 C13.546783,16 13.9465512,15.5981162 13.9465512,14.9952904 L13.9465512,7.96232339 L14.9459715,7.96232339 C15.2457976,7.96232339 15.5456237,7.86185243 15.7455078,7.66091052 C16.145276,7.25902669 16.0453339,6.65620094 15.6455658,6.25431711 L8.64962324,0.226059655 C8.24985509,-0.0753532182 7.75014491,-0.0753532182 7.35037676,0.226059655 L0.35443422,6.25431711 C-0.0453339258,6.65620094 -0.145275962,7.25902669 0.254492183,7.66091052 C0.35443422,7.86185243 0.654260329,7.96232339 0.954086438,7.96232339 L1.9535068,7.96232339 L1.9535068,14.9952904 C1.9535068,15.5981162 2.35327495,16 2.95292716,16 L4.95176789,16 C5.55142011,16 5.95118825,15.5981162 5.95118825,14.9952904 L5.95118825,11.9811617 L9.94886971,11.9811617 L9.94886971,14.9952904 C9.94886971,15.5981162 10.3486379,16 10.9482901,16" id="icon_home"></path>
                </g>
            </g>
        </g>
    </g>
</svg>