<?xml version="1.0" encoding="UTF-8"?>
<svg width="16px" height="16px" viewBox="0 0 16 16" version="1.1" xmlns="http://www.w3.org/2000/svg" xmlns:xlink="http://www.w3.org/1999/xlink">
    <!-- Generator: Sketch 50.2 (55047) - http://www.bohemiancoding.com/sketch -->
    <title>icon_settings</title>
    <desc>Created with Sketch.</desc>
    <defs></defs>
    <g id="Page-1" stroke="none" stroke-width="1" fill="none" fill-rule="evenodd">
        <g id="Template-live-edit" transform="translate(-40.000000, -1114.000000)" fill="#776CBA">
            <g id="Sidebar">
                <g id="Group-18" transform="translate(40.000000, 1114.000000)">
                    <path d="M8,11 C6.343,11 5,9.657 5,8 C5,6.343 6.343,5 8,5 C9.657,5 11,6.343 11,8 C11,9.657 9.657,11 8,11 M15.135,6.784 C13.832,6.458 13.214,4.966 13.905,3.815 C14.227,3.279 14.13,2.817 13.811,2.499 L13.501,2.189 C13.183,1.871 12.721,1.774 12.185,2.095 C11.033,2.786 9.541,2.168 9.216,0.865 C9.065,0.258 8.669,0 8.219,0 L7.781,0 C7.331,0 6.936,0.258 6.784,0.865 C6.458,2.168 4.966,2.786 3.815,2.095 C3.279,1.773 2.816,1.87 2.498,2.188 L2.188,2.498 C1.87,2.816 1.773,3.279 2.095,3.815 C2.786,4.967 2.168,6.459 0.865,6.784 C0.26,6.935 0,7.33 0,7.781 L0,8.219 C0,8.669 0.258,9.064 0.865,9.216 C2.168,9.542 2.786,11.034 2.095,12.185 C1.773,12.721 1.87,13.183 2.189,13.501 L2.499,13.811 C2.818,14.13 3.281,14.226 3.815,13.905 C4.967,13.214 6.459,13.832 6.784,15.135 C6.935,15.742 7.331,16 7.781,16 L8.219,16 C8.669,16 9.064,15.742 9.216,15.135 C9.542,13.832 11.034,13.214 12.185,13.905 C12.72,14.226 13.182,14.13 13.501,13.811 L13.811,13.501 C14.129,13.183 14.226,12.721 13.905,12.185 C13.214,11.033 13.832,9.541 15.135,9.216 C15.742,9.065 16,8.669 16,8.219 L16,7.781 C16,7.33 15.74,6.935 15.135,6.784" id="icon_settings"></path>
                </g>
            </g>
        </g>
    </g>
</svg>