<?xml version="1.0" encoding="UTF-8"?>
<svg width="16px" height="16px" viewBox="0 0 16 16" version="1.1" xmlns="http://www.w3.org/2000/svg" xmlns:xlink="http://www.w3.org/1999/xlink">
    <!-- Generator: Sketch 50.2 (55047) - http://www.bohemiancoding.com/sketch -->
    <title>icon_deadline</title>
    <desc>Created with Sketch.</desc>
    <defs></defs>
    <g id="Page-1" stroke="none" stroke-width="1" fill="none" fill-rule="evenodd">
        <g id="Requests-1/2" transform="translate(-922.000000, -455.000000)" fill="#979797">
            <g id="2" transform="translate(755.000000, 249.000000)">
                <g id="Group-2" transform="translate(167.000000, 206.000000)">
                    <g id="icon_deadline">
                        <path d="M8.0277,14 C4.7277,14 2.0277,11.3 2.0277,8 C2.0277,4.7 4.7277,2 8.0277,2 C11.3277,2 14.0277,4.7 14.0277,8 C14.0277,11.3 11.3277,14 8.0277,14 M8.0277,0 C3.6277,0 0.0277,3.6 0.0277,8 C0.0277,12.4 3.6277,16 8.0277,16 C12.4277,16 16.0277,12.4 16.0277,8 C16.0277,3.6 12.4277,0 8.0277,0" id="Fill-356"></path>
                        <polygon id="Fill-357" points="9.0277 4 7.0277 4 7.0277 9 12.0277 9 12.0277 7 9.0277 7"></polygon>
                    </g>
                </g>
            </g>
        </g>
    </g>
</svg>